<?xml version="1.0" encoding="UTF-8"?>
<svg width="241px" height="236px" viewBox="0 0 241 236" version="1.1" xmlns="http://www.w3.org/2000/svg" xmlns:xlink="http://www.w3.org/1999/xlink">
    <!-- Generator: Sketch 57.1 (83088) - https://sketch.com -->
    <title>WearingNerdGlasses</title>
    <desc>Created with Sketch.</desc>
    <g id="Style-Guide" stroke="none" stroke-width="1" fill="none" fill-rule="evenodd">
        <g id="StyleGuide" transform="translate(-1860.000000, -2069.000000)">
            <g id="Group-6" transform="translate(1268.000000, 2056.000000)">
                <g id="WearingNerdGlasses" transform="translate(581.000000, 1.000000)">
                    <rect id="Rectangle" x="3.5" y="0.181597292" width="256" height="256"></rect>
                    <g id="Group-3" transform="translate(0.000000, 90.223732)" stroke-width="5.625">
                        <path d="M55.3362097,0.982693357 C72.188119,10.4451052 83.5527057,28.3252313 83.5527057,48.8242651 C83.5527057,69.1174872 72.4151759,86.8441256 55.8421274,96.3782873 C38.9884805,86.9160482 27.6238938,69.0359221 27.6238938,48.5368883 C27.6238938,28.4860515 38.4969558,10.9408533 54.7429551,1.32799525 Z" id="Combined-Shape" stroke="#C7CBD1" fill="#C7CBD1" transform="translate(55.588300, 48.680577) rotate(-59.000000) translate(-55.588300, -48.680577) "></path>
                        <path d="M66.9829984,55.0075702 C77.7892589,61.3419597 85.0315647,72.9745469 85.0315647,86.2760845 C85.0315647,99.9439133 77.3848969,111.849609 66.082235,118.05577 C55.2753726,111.722203 48.0331858,100.089698 48.0331858,86.7882693 C48.0331858,73.1389443 55.6591633,61.2469847 66.9366304,55.0338214 Z" id="Combined-Shape-Copy" stroke="#E3E5E8" fill="#E3E5E8" transform="translate(66.532375, 86.532177) rotate(-109.000000) translate(-66.532375, -86.532177) "></path>
                    </g>
                    <g id="Group-2" transform="translate(151.500000, 90.223732)" stroke-width="5.625">
                        <path d="M56.0112235,1.74033377 C73.4459261,11.2733056 85.20355,29.2868552 85.20355,49.9388648 C85.20355,70.3834832 73.6808849,88.2423673 56.5347473,97.8476406 C39.0986816,88.3152312 27.340844,70.3015418 27.340844,49.6493444 C27.340844,29.4489409 38.5898723,11.7728665 55.3976222,2.08830255 Z" id="Combined-Shape-Copy-2" stroke="#C7CBD1" fill="#C7CBD1" transform="translate(56.272197, 49.794105) scale(-1, 1) rotate(-59.000000) translate(-56.272197, -49.794105) "></path>
                        <path d="M45.4008642,54.162138 C56.5803335,60.5438816 64.0727006,72.2629985 64.0727006,85.6634339 C64.0727006,99.4333493 56.1614749,111.427953 44.4678057,117.680357 C33.2874856,111.299177 25.795,99.5799806 25.795,86.1794392 C25.795,72.4282988 33.6846668,60.4476326 45.3520836,54.188123 Z" id="Combined-Shape-Copy-3" stroke="#E3E5E8" fill="#E3E5E8" transform="translate(44.933850, 85.921437) scale(-1, 1) rotate(-109.000000) translate(-44.933850, -85.921437) "></path>
                    </g>
                    <path d="M158.778105,150.196768 C167.420422,157.069799 172.875,167.147377 172.875,178.377948 C172.875,199.089803 154.124534,208.411934 131.239234,208.411934 C108.353935,208.411934 90,199.089803 90,178.377948 C90,167.264922 95.3409949,157.280879 103.826581,150.413629 C111.249027,153.723365 121.155764,155.508644 131.0625,155.508644 C141.150937,155.508644 151.239375,153.657276 158.70381,150.231006 Z" id="Combined-Shape" stroke="#3E8C0B" stroke-width="5.625" fill="#3E8C0B"></path>
                    <path d="M132.9375,186.650297 C148.168874,186.650297 163.400247,182.580135 175.580486,174.97321 C175.774931,176.512906 175.875,178.080779 175.875,179.669993 C175.875,202.078271 155.767034,212.163941 131.22488,212.163941 C106.682727,212.163941 87,202.078271 87,179.669993 C87,177.458087 87.1938509,175.28752 87.5668871,173.171684 C100.154935,181.936624 116.546218,186.650297 132.9375,186.650297 Z" id="Combined-Shape-Copy-5" fill="#FBE66A"></path>
                    <path d="M87.5345164,172.994349 C100.065676,181.444252 116.301557,185.986115 132.537438,185.986115 C147.923358,185.986115 163.309277,181.907346 175.542248,174.290444 C175.761848,175.89255 175.875,177.525627 175.875,179.182361 C175.875,183.289229 175.172258,186.973896 173.869178,190.250691 C161.613511,196.48828 146.811178,199.808916 132.008844,199.808916 C116.609164,199.808916 101.209483,196.214865 88.6797577,189.479498 C87.585112,186.398606 87,182.970045 87,179.182361 C87,177.077503 87.1826429,175.010831 87.5345164,172.994349 Z" id="Combined-Shape" fill="#F9DC28"></path>
                    <path d="M90.6178294,162.904724 C102.669019,169.213267 117.603228,172.58403 132.537438,172.58403 C146.762903,172.58403 160.988367,169.525614 172.721844,163.783595 C174.756207,167.782951 175.875,172.147372 175.875,176.716965 L175.873072,176.950713 C163.247563,183.256308 147.628204,186.625028 132.008844,186.625028 C115.915033,186.625028 99.8212219,183.048544 87.0023123,176.367316 L87,176.716965 C87,171.810463 88.2898481,167.140503 90.6178294,162.904724 Z" id="Combined-Shape-Copy-7" fill="#DFC104"></path>
                    <path d="M116.002367,52.768411 C114.305474,42.6153475 110.236934,33.3363413 103.796746,24.9313921 C97.3565587,16.526443 89.3009457,12.8599358 79.6299072,13.9318706" id="Line" stroke="#17191C" stroke-width="5.625" stroke-linecap="round" transform="translate(97.816137, 33.259206) rotate(-7.000000) translate(-97.816137, -33.259206) "></path>
                    <path d="M187.130169,52.8141118 C185.398275,42.6610507 181.245835,33.3820498 174.672849,24.9771093 C168.099863,16.5721687 159.878149,12.9056723 150.007709,13.9776199" id="Line-Copy" stroke="#17191C" stroke-width="5.625" stroke-linecap="round" transform="translate(168.568939, 33.304928) scale(-1, 1) rotate(-7.000000) translate(-168.568939, -33.304928) "></path>
                    <path d="M96.6462128,217.887481 L83.4375,228.017898" id="Line-2" stroke="#FBE66A" stroke-width="5.625" stroke-linecap="round"></path>
                    <path d="M131.395644,228.063933 L131.395644,245.040032" id="Line-2-Copy" stroke="#FBE66A" stroke-width="5.625" stroke-linecap="round"></path>
                    <path d="M169.646955,215.638017 L176.019333,230.642563" id="Line-2-Copy-2" stroke="#FBE66A" stroke-width="5.625" stroke-linecap="round" transform="translate(172.833144, 223.140290) rotate(-29.974508) translate(-172.833144, -223.140290) "></path>
                    <path d="M131.4375,152.131838 C160.40625,152.131838 189.375,133.366442 189.375,101.330271 C189.375,69.2940998 163.435498,43.3236519 131.4375,43.3236519 C99.4395023,43.3236519 73.5,69.2940998 73.5,101.330271 C73.5,133.366442 102.46875,152.131838 131.4375,152.131838 Z" id="Oval" stroke="#4AA810" stroke-width="5.625" fill="#4AA810"></path>
                    <g id="Group" transform="translate(79.500000, 72.589302)">
                        <ellipse id="Oval" fill="#FFFFFF" cx="24" cy="24.0128411" rx="24" ry="24.0128411"></ellipse>
                        <path d="M24.2172964,38.6456661 C32.1744514,38.6456661 38.625,31.9343282 38.625,23.6554733 C38.625,15.3766184 32.1526988,8.05461326 24.2172964,8.66528047 C16.8332253,9.2335201 14.8363584,12.030172 18.2266958,17.0552362 C13.2872719,14.4747043 10.481571,16.6747833 9.80959281,23.6554733 C9.01662333,31.8930539 16.2601414,38.6456661 24.2172964,38.6456661 Z" id="Oval" fill="#17191C"></path>
                    </g>
                    <g id="Group-Copy" transform="translate(135.375000, 72.589302)">
                        <ellipse id="Oval" fill="#FFFFFF" cx="24" cy="24.0128411" rx="24" ry="24.0128411"></ellipse>
                        <path d="M24.0599541,38.8444123 C32.0653489,38.8444123 38.5550036,32.111516 38.5550036,23.8060674 C38.5550036,15.5006188 32.0434644,8.15509367 24.0599541,8.76772249 C16.6311175,9.33778743 14.6221447,12.1434229 18.0330358,17.1846288 C13.063667,14.5958075 10.2409566,16.8029537 9.56490458,23.8060674 C8.76712777,32.0701091 16.0545593,38.8444123 24.0599541,38.8444123 Z" id="Oval" fill="#17191C"></path>
                    </g>
                    <path d="M120,132.246204 C123.689559,134.817959 127.449151,136.103837 131.278775,136.103837 C135.108398,136.103837 139.079624,134.817959 143.19245,132.246204" id="Line-4" stroke="#3E8C0B" stroke-width="5.625" stroke-linecap="round"></path>
                    <g id="NerdGlasses" transform="translate(65.250000, 75.215706)" fill="#000000" fill-rule="nonzero">
                        <path d="M61.7902075,6.91058981 C59.7277226,6.81283302 57.5671137,6.29894979 55.3458289,4.9669942 C50.0242695,1.77602135 36.6053199,0.000718620033 32.6009697,1.37262891e-05 C21.3212721,-0.00273688683 10.2165255,0.406949138 0,2.09479174 L0.339177935,10.3658712 C3.259318,11.5209299 4.14905873,13.6785113 4.5489724,16.2830399 C6.39222838,28.2876404 8.97591038,38.4965029 13.7865781,42.6943449 C17.2030826,45.6756235 21.4958698,48.2732419 29.5284151,48.0068399 C38.0852169,47.7230502 47.1755112,45.1785195 51.6348248,39.6061876 C55.5497253,34.714152 59.6332313,27.1876929 61.1118527,18.9608828 C61.6689723,15.8611152 63.6957283,14.4906127 66,14.4906127 C68.3042689,14.4906127 70.3310305,15.8611152 70.8881501,18.9608828 C72.3667659,27.1876929 76.4502775,34.714152 80.365178,39.6061876 C84.8244916,45.1785195 93.9147859,47.7230502 102.471582,48.0068399 C110.504131,48.2732419 114.796919,45.6756235 118.213424,42.6943449 C123.024091,38.4965029 125.607773,28.2876404 127.451026,16.2830399 C127.850943,13.6785113 128.740681,11.5209299 131.660825,10.3658712 L132,2.09479174 C121.783476,0.406949138 110.678727,-0.0027366467 99.3990331,1.37262891e-05 C95.3946773,0.000718560001 81.9757277,1.77602135 76.6541738,4.9669942 C74.4328891,6.29894979 72.2722746,6.81283302 70.2097953,6.91058981 C67.4059559,7.04348686 64.5940468,7.04348686 61.7902075,6.91058981 Z M28.9270764,4.08730466 C31.4093966,4.08273345 33.9232711,4.14785443 36.3010436,4.10908535 C38.3586201,4.07555911 52.5347302,3.65603936 54.8254091,12.8614397 C57.0088108,21.6357311 53.7701248,32.7910489 46.8750371,39.0969451 C42.0706936,43.4907618 23.1636848,48.2589339 15.7493333,38.838255 C10.6676014,32.3814076 9.59245072,26.5230179 9.05114476,18.4017234 C8.70822916,13.25696 9.92875155,8.00760331 17.6772982,5.33786419 C20.7559812,4.27710989 24.7898669,4.09532305 28.9270764,4.08730466 L28.9270764,4.08730466 Z M94.4070217,4.08730466 C94.996046,4.08423898 95.4417578,4.10507228 95.6989556,4.10921127 C98.076728,4.1479802 100.590608,4.08285947 103.072928,4.08730466 C107.210138,4.09548354 111.244021,4.2772696 114.322702,5.33801971 C122.07125,8.00774779 123.291771,13.2570835 122.948855,18.4018263 C122.407552,26.5230889 121.332399,32.3814552 116.250669,38.8382768 C108.836318,48.258918 89.9293112,43.4907649 85.1249622,39.0969658 C78.2298802,32.7910949 74.9911887,21.6358217 77.1745904,12.8615654 C79.1789371,4.80687202 90.283896,4.11078409 94.4070217,4.08730466 L94.4070217,4.08730466 Z M3.375,6.13095013 L9,6.13095013 L9,7.49338044 L3.375,7.49338044 L3.375,6.13095013 Z M123,6.13095013 L128.625,6.13095013 L128.625,7.49338044 L123,7.49338044 L123,6.13095013 Z" id="path2998"></path>
                    </g>
                </g>
            </g>
        </g>
    </g>
</svg>