<?xml version="1.0" encoding="UTF-8"?>
<svg width="95px" height="75px" viewBox="0 0 95 75" version="1.1" xmlns="http://www.w3.org/2000/svg" xmlns:xlink="http://www.w3.org/1999/xlink">
    <!-- Generator: Sketch 57.1 (83088) - https://sketch.com -->
    <title>ArtSuppliesIconNoBackground</title>
    <desc>Created with Sketch.</desc>
    <g id="Marketing-Page" stroke="none" stroke-width="1" fill="none" fill-rule="evenodd">
        <g id="11″-iPad-Pro" transform="translate(-485.000000, -966.000000)">
            <g id="ArtSuppliesIconNoBackground" transform="translate(485.000000, 966.000000)">
                <g id="Group-10">
                    <g id="Group-4" transform="translate(4.000000, 66.000000)">
                        <path d="M79.001084,-4.99913439 C81.4293609,-2.90100239 83,0.438950076 83,4.20077134 C83,7.96259259 81.4293609,11.3025451 79.001084,13.4006771 C76.5710712,11.3034638 75,7.96310997 75,4.20077134 C75,0.512934458 76.5094666,-2.76946438 78.8566446,-4.87390666 Z" id="Combined-Shape" fill="#FEF7CD" transform="translate(79.000000, 4.200771) rotate(90.000000) translate(-79.000000, -4.200771) "></path>
                        <g id="Group-3">
                            <path d="M73,4.5 C73,3.12671452 72.2493632,1.62820004 70.7480897,0.00445655314 C23.5826966,-0.0941993312 0,1.44512315 0,4.622424 C0,7.78098053 23.5826966,9.23028986 70.7480897,8.97035199 C72.2493632,7.38214714 73,5.8920298 73,4.5 Z" id="Oval" fill="#DFC106"></path>
                            <path d="M73,4.5 C73,3.12671452 72.2493632,1.62820004 70.7480897,0.00445655314 L57.2134595,0.024500779 L57.2134595,8.97035199 L70.7480897,8.97035199 C72.2493632,7.38214714 73,5.8920298 73,4.5 Z" id="Oval-Copy" fill="#F9DC28"></path>
                        </g>
                    </g>
                    <g id="Group-6" transform="translate(0.000000, 8.000000)">
                        <path d="M5.45765665,0 L42.6040546,0 C44.8131936,4.82366169e-16 46.6040546,1.790861 46.6040546,4 C46.6040546,4.12568781 46.5981306,4.25130578 46.5863022,4.37643578 L42.8051633,44.3764358 C42.6109874,46.4305887 40.8862258,48 38.8229157,48 L9.79929077,48 C7.75721225,48 6.04300157,46.4617831 5.82264683,44.4316283 L1.48101272,4.43162832 C1.24263098,2.23538852 2.82978853,0.261737806 5.02602833,0.0233560645 C5.1693783,0.00779673616 5.31346474,-1.74986921e-15 5.45765665,0 Z" id="Rectangle" fill="#5B4EFF"></path>
                        <path d="M42.4626333,40 L42.4626333,44 C42.4626333,46.209139 40.6717723,48 38.4626333,48 L9.91376981,48 C7.82375528,48 6.08605183,46.3909696 5.92557796,44.3071249 L5.59389248,40 L5.59389248,40 L42.4626333,40 Z" id="Rectangle-Copy-2" fill="#382EB8"></path>
                        <g id="Group-5" fill="#EE4466">
                            <path d="M2.23451451,0 L45.76547,0 C46.8700395,6.85272294e-16 47.76547,0.8954305 47.76547,2 C47.76547,2.07379031 47.7613862,2.14752407 47.7532374,2.22086305 L47.1976794,7.22088508 C47.0851399,8.2337411 46.2290256,9.00000949 45.2099366,9.00002203 L2.79012019,9.00054411 C1.77100707,9.00055665 0.914861802,8.23427416 0.802326579,7.22139344 L0.246745515,2.22084933 C0.124773799,1.12303483 0.915850678,0.134202722 2.01366518,0.0122310059 C2.08699964,0.00408324475 2.16072881,4.57643423e-16 2.23451451,0 Z" id="Rectangle"></path>
                            <rect id="Rectangle" x="12" y="2" width="11" height="19" rx="4.5"></rect>
                            <rect id="Rectangle-Copy" x="34" y="0" width="8" height="17" rx="4"></rect>
                            <path d="M13.6224478,9.00056614 L13.6231595,12.9983454 C12.6372257,11.1544269 10.9912342,9.71652829 9.00083637,9.00030091 L13.6224478,9.00056614 Z" id="Combined-Shape"></path>
                            <path d="M35.6224478,9.00056614 L35.6231595,12.9983454 C34.6372257,11.1544269 32.9912342,9.71652829 31.0008364,9.00030091 L35.6224478,9.00056614 Z" id="Combined-Shape-Copy"></path>
                            <path d="M26.6224478,9.00056614 L26.6231595,12.9983454 C25.6372257,11.1544269 23.9912342,9.71652829 22.0008364,9.00030091 L26.6224478,9.00056614 Z" id="Combined-Shape-Copy-2" transform="translate(24.311592, 10.999196) scale(-1, 1) translate(-24.311592, -10.999196) "></path>
                            <path d="M44.6224478,9.00056614 L44.6231595,12.9983454 C43.6372257,11.1544269 41.9912342,9.71652829 40.0008364,9.00030091 L44.6224478,9.00056614 Z" id="Combined-Shape-Copy-3" transform="translate(42.311592, 10.999196) scale(-1, 1) translate(-42.311592, -10.999196) "></path>
                        </g>
                        <ellipse id="Oval" fill="#FBD0D9" cx="15" cy="16" rx="1" ry="2"></ellipse>
                        <ellipse id="Oval-Copy-3" fill="#FBD0D9" cx="36.5" cy="13.5" rx="1" ry="1.5"></ellipse>
                    </g>
                    <g id="Group-9" transform="translate(55.000000, 0.000000)">
                        <path d="M20.0393678,31 C23.2927105,31 25.9664026,33.5672392 26.0985107,36.8178986 L26.7157519,52.0057736 C26.8664874,55.7147809 23.9819382,58.8437208 20.2729308,58.9944563 C20.1820008,58.9981517 20.0910051,59 20,59 C16.2983454,59 13.2975614,55.999216 13.2975614,52.2975614 C13.2975614,52.2005396 13.2996681,52.1035293 13.3038799,52.006599 L13.963895,36.817212 C14.1052376,33.5643949 16.7834814,31 20.0393678,31 Z" id="Rectangle" fill="#3E8C0D"></path>
                        <g id="Group-7">
                            <path d="M6,0 L34,0 C37.3137085,-6.08718376e-16 40,2.6862915 40,6 L40,28.6480999 C40,30.5872806 38.6090682,32.2471533 36.6997943,32.5864102 L20.0862069,35.5384615 L20.0862069,35.5384615 L3.30603093,32.5824028 C1.39405838,32.2455826 2.06614659e-15,30.5844755 0,28.6430619 L0,6 C-4.05812251e-16,2.6862915 2.6862915,6.08718376e-16 6,0 Z" id="Rectangle" fill="#3E8C0D"></path>
                            <path d="M5,0 L35,0 C37.7614237,-5.07265313e-16 40,2.23857625 40,5 L40,13 L40,13 L0,13 L0,5 C-3.38176876e-16,2.23857625 2.23857625,5.07265313e-16 5,0 Z" id="Rectangle-Copy-3" fill="#F9FDF7"></path>
                            <g id="Group-8" transform="translate(4.000000, 0.000000)" fill="#E2F5D6">
                                <rect id="Rectangle" x="-4.4408921e-16" y="0" width="5" height="15" rx="1.5"></rect>
                                <rect id="Rectangle-Copy-4" x="9" y="0" width="5" height="15" rx="1.5"></rect>
                                <rect id="Rectangle-Copy-5" x="18" y="0" width="5" height="15" rx="1.5"></rect>
                                <rect id="Rectangle-Copy-6" x="27" y="0" width="5" height="15" rx="1.5"></rect>
                            </g>
                            <rect id="Rectangle" fill="#4AA810" x="0" y="13" width="40" height="12"></rect>
                        </g>
                    </g>
                </g>
            </g>
        </g>
    </g>
</svg>