<?xml version="1.0" encoding="UTF-8"?>
<svg width="101px" height="76px" viewBox="0 0 101 76" version="1.1" xmlns="http://www.w3.org/2000/svg" xmlns:xlink="http://www.w3.org/1999/xlink">
    <!-- Generator: Sketch 57.1 (83088) - https://sketch.com -->
    <title>HeartsIconNoBackground</title>
    <desc>Created with Sketch.</desc>
    <g id="Marketing-Page" stroke="none" stroke-width="1" fill="none" fill-rule="evenodd">
        <g id="11″-iPad-Pro" transform="translate(-295.000000, -967.000000)">
            <g id="HeartsIconNoBackground" transform="translate(295.000000, 967.000000)">
                <g id="Group-2">
                    <g id="heart-solid-copy" transform="translate(46.000000, 0.000000)">
                        <path d="M49.4357613,3.28206839 C43.5759131,-1.72141147 34.8609928,-0.821427939 29.4823366,4.73918458 L27.3757853,6.91414478 L25.269234,4.73918458 C19.9012709,-0.821427939 11.1756575,-1.72141147 5.3158093,3.28206839 C-1.3994912,9.02482043 -0.536637694,18.5352528 2.98810499,26.060625 C4.57800293,29.4550781 8.12099919,33.3793499 13.0067139,37.9855957 C15.1067873,39.9655424 19.0873625,42.9581478 24.9484394,46.9634118 C26.2850836,48.3455294 28.4557938,48.3455294 29.792438,46.9634118 C36.2865535,42.675827 40.5222447,39.5091494 42.4995117,37.4633789 C47.0336437,32.7721595 50.032423,28.8856781 51.8342285,26.060625 C56.3807364,18.9321497 56.1510618,9.02482043 49.4357613,3.28206839 Z" id="Path" fill="#DC143C" fill-rule="nonzero"></path>
                        <path d="M8.68369178,6.68316475 C9.58966442,6.68295876 10.3242673,7.41722772 10.3244733,8.32320037 C10.3245174,8.516904 10.2902536,8.70908454 10.2233002,8.89084906 C9.49134999,10.8769091 9.12523827,12.4701977 9.12496501,13.670715 C9.12469179,14.8711025 9.48999919,16.4640101 10.2208872,18.4494379 C10.5341442,19.3003715 10.0982653,20.2441317 9.24732982,20.5573833 C9.06581923,20.6242021 8.87392962,20.6584226 8.68051079,20.6584666 C7.0628978,20.6588344 5.61813669,19.6464707 5.06626554,18.1259082 C4.52742609,16.6412739 4.25817528,15.1565783 4.2585131,13.6718214 C4.25885126,12.1867296 4.52889968,10.7015765 5.06865836,9.2163621 C5.62122312,7.69589538 7.065932,6.68353256 8.68369178,6.68316475 Z" id="Rectangle" fill="#FBD0D9" transform="translate(7.687715, 13.670816) rotate(11.000000) translate(-7.687715, -13.670816) "></path>
                    </g>
                    <g id="heart-solid" transform="translate(0.000000, 12.000000)">
                        <path d="M65.9143484,4.37609119 C58.1012174,-2.29521529 46.4813238,-1.09523725 39.3097821,6.31891277 L36.501047,9.2188597 L33.692312,6.31891277 C26.5350278,-1.09523725 14.9008767,-2.29521529 7.08774573,4.37609119 C-1.86598826,12.0330939 -0.715516925,24.7136704 3.98413998,34.7475 C6.10400391,39.2734375 10.8279989,44.5057999 17.3422852,50.6474609 C20.1423831,53.2873898 25.4498167,57.2775303 33.2645859,62.6178824 C35.0467781,64.4607059 37.9410584,64.4607059 39.7232507,62.6178824 C48.3820713,56.9011027 54.0296596,52.6788658 56.6660156,49.9511719 C62.7115249,43.6962127 66.7098973,38.5142375 69.1123047,34.7475 C75.1743152,25.2428663 74.8680823,12.0330939 65.9143484,4.37609119 Z" id="Path" fill="#EE4466" fill-rule="nonzero"></path>
                        <path d="M11.5782557,8.91088633 C12.7862192,8.91061169 13.7656898,9.88963696 13.7659644,11.0976005 C13.7660232,11.355872 13.7203381,11.6121127 13.6310669,11.8544654 C12.6551333,14.5025454 12.1669844,16.6269303 12.16662,18.22762 C12.1662557,19.8281366 12.6533323,21.9520135 13.6278496,24.5992506 C14.0455256,25.7338286 13.4643538,26.9921755 12.3297731,27.4098444 C12.087759,27.4989362 11.8319062,27.5445635 11.5740144,27.5446222 C9.41719707,27.5451125 7.49084892,26.1952942 6.75502071,24.1678777 C6.03656812,22.1883652 5.67756704,20.2087711 5.67801746,18.2290952 C5.67846835,16.2489728 6.03853291,14.2687687 6.75821115,12.2884828 C7.49496416,10.2611938 9.42124267,8.91137675 11.5782557,8.91088633 Z" id="Rectangle" fill="#FBD0D9" transform="translate(10.250287, 18.227754) rotate(11.000000) translate(-10.250287, -18.227754) "></path>
                    </g>
                </g>
            </g>
        </g>
    </g>
</svg>