<?xml version="1.0" encoding="UTF-8"?>
<svg width="241px" height="236px" viewBox="0 0 241 236" version="1.1" xmlns="http://www.w3.org/2000/svg" xmlns:xlink="http://www.w3.org/1999/xlink">
    <!-- Generator: Sketch 57.1 (83088) - https://sketch.com -->
    <title>WearingHeadphone</title>
    <desc>Created with Sketch.</desc>
    <g id="Style-Guide" stroke="none" stroke-width="1" fill="none" fill-rule="evenodd">
        <g id="StyleGuide" transform="translate(-1570.000000, -2355.000000)">
            <g id="Group-6" transform="translate(1268.000000, 2056.000000)">
                <g id="WearingHeadphone" transform="translate(291.000000, 287.000000)">
                    <g id="Firefly">
                        <rect id="Frame" x="3.36201991" y="0.248668094" width="256" height="256"></rect>
                        <path d="M55.225456,91.2074033 C72.0853557,100.669815 83.455331,118.549941 83.455331,139.048975 C83.455331,159.341871 72.3128785,177.068266 55.7324132,186.602537 C38.8702111,177.141129 27.5,159.260845 27.5,138.761598 C27.5,118.710762 38.3782176,101.165563 54.63192,91.5527052 Z" id="LeftBigWing" stroke="#C7CBD1" stroke-width="5.625" fill="#C7CBD1" transform="translate(55.477666, 138.905287) rotate(-59.000000) translate(-55.477666, -138.905287) "></path>
                        <path d="M66.8780335,145.232436 C77.6892705,151.566861 84.9348912,163.199366 84.9348912,176.500795 C84.9348912,190.168586 77.2846391,202.074254 65.9766684,208.280429 C55.16459,201.946913 47.9189693,190.314408 47.9189693,177.012979 C47.9189693,163.363654 55.5485626,151.471695 66.831377,145.258531 Z" id="LeftSmallWing" stroke="#E3E5E8" stroke-width="5.625" fill="#E3E5E8" transform="translate(66.426930, 176.756887) rotate(-109.000000) translate(-66.426930, -176.756887) "></path>
                        <path d="M207.47315,91.9653306 C224.91583,101.498377 236.678793,119.511772 236.678793,140.163575 C236.678793,160.608354 225.150483,178.467358 207.995992,188.072577 C190.551614,178.539252 178.788651,160.525857 178.788651,139.874054 C178.788651,119.673651 190.043013,101.997577 206.858732,92.3130125 Z" id="RightBigWing" stroke="#C7CBD1" stroke-width="5.625" fill="#C7CBD1" transform="translate(207.733722, 140.018815) scale(-1, 1) rotate(-59.000000) translate(-207.733722, -140.018815) "></path>
                        <path d="M196.856969,144.386697 C208.041886,150.768406 215.537924,162.487602 215.537924,175.888144 C215.537924,189.658059 207.622947,201.652663 195.923734,207.905067 C184.738112,201.523887 177.242074,189.804691 177.242074,176.404149 C177.242074,162.653009 185.135482,150.672343 196.808431,144.412833 Z" id="RightSmallWing" stroke="#E3E5E8" stroke-width="5.625" fill="#E3E5E8" transform="translate(196.389999, 176.146147) scale(-1, 1) rotate(-109.000000) translate(-196.389999, -176.146147) "></path>
                        <path d="M158.716399,150.197746 C167.362814,157.070776 172.819978,167.148355 172.819978,178.378926 C172.819978,199.09078 154.060621,208.412912 131.164471,208.412912 C108.26832,208.412912 89.9056823,199.09078 89.9056823,178.378926 C89.9056823,167.266186 95.2489343,157.282372 103.738163,150.415138 C111.164785,153.724342 121.076219,155.509622 130.987652,155.509622 C141.080873,155.509622 151.174095,153.658254 158.642069,150.231984 Z" id="Body" stroke="#3E8C0B" stroke-width="5.625" fill="#3E8C0B"></path>
                        <path d="M132.863542,186.651275 C148.102137,186.651275 163.340733,182.581113 175.526747,174.974188 C175.721284,176.513884 175.821401,178.081757 175.821401,179.67097 C175.821401,202.079249 155.7039,212.164919 131.15011,212.164919 C106.596319,212.164919 86.9042599,202.079249 86.9042599,179.67097 C86.9042599,177.459064 87.0982027,175.288498 87.4714157,173.172662 C100.065432,181.937602 116.464487,186.651275 132.863542,186.651275 Z" id="BodyLightBottom" fill="#FBE66A"></path>
                        <path d="M87.4388549,172.996328 C99.9759321,181.445175 116.219611,185.987093 132.46329,185.987093 C147.856505,185.987093 163.24972,181.908323 175.488491,174.291422 C175.708195,175.893528 175.821401,177.526605 175.821401,179.183338 C175.821401,183.28979 175.118469,186.974126 173.815025,190.250671 C161.553949,196.489079 146.744197,199.809894 131.934446,199.809894 C116.527717,199.809894 101.120988,196.215961 88.5852349,189.481565 C87.4897765,186.400329 86.9042599,182.971435 86.9042599,179.183338 C86.9042599,177.07883 87.0869289,175.012493 87.4388549,172.996328 Z" id="BodyLightMid" fill="#F9DC28"></path>
                        <path d="M90.5238047,162.905701 C102.580708,169.214245 117.521999,172.585008 132.46329,172.585008 C146.695156,172.585008 160.927022,169.526739 172.665899,163.784989 C174.702077,167.783929 175.821401,172.14835 175.821401,176.717943 L175.819472,176.951691 C163.187977,183.257286 147.561211,186.626006 131.934446,186.626006 C115.8333,186.626006 99.7321554,183.049654 86.9065088,176.368237 L86.9042599,176.717943 C86.9042599,171.811441 88.1947196,167.14148 90.5238047,162.905701 Z" id="BodyLightTop" fill="#DFC104"></path>
                        <path d="M115.921382,52.7705873 C114.223114,42.617355 110.152141,33.33805 103.708463,24.9326724 C97.2647852,16.5272947 89.2050933,12.8602996 79.5293875,13.9316872" id="LeftAntenna" stroke="#17191C" stroke-width="5.625" stroke-linecap="round" transform="translate(97.725385, 33.260294) rotate(-7.000000) translate(-97.725385, -33.260294) "></path>
                        <path d="M187.083194,52.81631 C185.349909,42.663078 181.194997,33.3837736 174.618459,24.9783969 C168.04192,16.5730202 159.816048,12.9060264 149.940844,13.9774154" id="RightAntenna" stroke="#17191C" stroke-width="5.625" stroke-linecap="round" transform="translate(168.512019, 33.306019) scale(-1, 1) rotate(-7.000000) translate(-168.512019, -33.306019) "></path>
                        <path d="M96.5550465,217.888459 L83.3400707,228.018876" id="LightLeft" stroke="#FBE66A" stroke-width="5.625" stroke-linecap="round"></path>
                        <path d="M131.320954,228.064911 L131.320954,245.04101" id="LightMiddle" stroke="#FBE66A" stroke-width="5.625" stroke-linecap="round"></path>
                        <path d="M169.58924,215.637453 L175.966964,230.645082" id="LightRight" stroke="#FBE66A" stroke-width="5.625" stroke-linecap="round" transform="translate(172.778102, 223.141268) rotate(-29.974508) translate(-172.778102, -223.141268) "></path>
                        <path d="M131.36283,152.132816 C160.345316,152.132816 189.327802,133.36742 189.327802,101.331249 C189.327802,69.2950777 163.376,43.3246297 131.36283,43.3246297 C99.3496605,43.3246297 73.3978587,69.2950777 73.3978587,101.331249 C73.3978587,133.36742 102.380345,152.132816 131.36283,152.132816 Z" id="Head" stroke="#4AA810" stroke-width="5.625" fill="#4AA810"></path>
                        <ellipse id="LeftEye" fill="#FFFFFF" cx="103.412083" cy="96.6031209" rx="24.0113798" ry="24.0128411"></ellipse>
                        <path d="M103.629483,111.235946 C111.590411,111.235946 118.044018,104.524608 118.044018,96.2457531 C118.044018,87.9668982 111.568648,80.6448931 103.629483,81.2555603 C96.2419106,81.8237999 94.2440969,84.6204518 97.6360418,89.6455161 C92.6942759,87.0649841 89.8872446,89.2650631 89.2149478,96.2457531 C88.4216023,104.483334 95.668555,111.235946 103.629483,111.235946 Z" id="LeftPupil" fill="#17191C"></path>
                        <ellipse id="RightEye" fill="#FFFFFF" cx="159.313577" cy="96.6031209" rx="24.0113798" ry="24.0128411"></ellipse>
                        <path d="M159.37356,111.434692 C167.38275,111.434692 173.875482,104.701796 173.875482,96.3963472 C173.875482,88.0908987 167.360855,80.7453735 159.37356,81.3580023 C151.941201,81.9280672 149.931275,84.7337027 153.343784,89.7749086 C148.372058,87.1860874 145.54801,89.3932336 144.871637,96.3963472 C144.073482,104.660389 151.364369,111.434692 159.37356,111.434692 Z" id="RightPupil" fill="#17191C"></path>
                        <path d="M119.919907,132.247182 C123.611216,134.818937 127.37259,136.104815 131.20403,136.104815 C135.035469,136.104815 139.008578,134.818937 143.123354,132.247182" id="Smile" stroke="#3E8C0B" stroke-width="5.625" stroke-linecap="round"></path>
                    </g>
                    <g id="Group-Copy" transform="translate(197.500000, 100.000000) scale(-1, 1) translate(-197.500000, -100.000000) translate(184.500000, 71.500000)">
                        <path d="M21.3626465,0 C25.3043704,0 26.5900762,3.24727763 25.2197638,9.74183288 C24.7443393,15.924361 24.4565191,22.2018435 24.356303,28.5742804 C24.2560869,34.9467172 24.5439072,41.5342673 25.2197638,48.3369304 C26.5900762,54.1123101 25.3043704,57 21.3626465,57 C20.0068972,57 17.9129034,55.9942919 17.1076152,54.3424297 C14.4009444,48.7903222 15.4500606,35.8496218 15.4500606,28.5 C15.4500606,21.5641952 15.2813815,8.41791167 17.5561178,2.43120259 C18.4089958,0.186576439 19.7503266,0 21.3626465,0 Z" id="Rectangle" fill="#FFCCE7"></path>
                        <path d="M15.3711426,1.83824973 C16.4717505,1.0864852 17.3437112,1.05526912 17.9870247,1.74460149 C16.6125467,12.6528376 16.0391806,21.4499365 16.2669262,28.1358983 C16.2885186,28.7697887 16.243877,29.3642482 16.1412052,29.9193031 C16.1446277,30.0226815 16.1464838,30.1287404 16.1464838,30.2359976 C16.1464838,36.9051973 17.0143219,45.6491035 18.7499982,56.4677164 C18.1338475,57.1774279 17.2660094,57.1774279 16.1464838,56.4677164 C14.6559635,55.5228167 13.5027415,54.6236125 12.7397509,54.3537788 C10.1323507,53.4316644 8.3717331,53.8098323 7.46813615,53.8098323 C5.24460864,53.8098323 7.46813615,52.0146505 4.37973458,52.3377022 C1.65702977,43.5392551 2.23767693e-06,39.81897 2.23767693e-06,30.2359976 C2.23767693e-06,29.8626907 0.0245046763,29.5032876 0.0716005575,29.1578626 C0.057830036,29.0141849 0.0488471076,28.866625 0.0437396572,28.7166863 C-0.283504911,19.1096283 1.25435059,15.3203896 3.68953224,6.40189328 C6.80363673,6.61466734 4.50824318,4.89495369 6.74233329,4.81497356 C7.65022267,4.78247125 9.43211786,5.09826035 12.020415,4.08004038 C12.7778156,3.78208372 13.9058091,2.83913817 15.3711426,1.83824973 Z" id="Combined-Shape" fill="#F54291"></path>
                    </g>
                    <g id="Group-Copy-2" transform="translate(53.500000, 71.500000)">
                        <path d="M21.3626465,0 C25.3043704,0 26.5900762,3.24727763 25.2197638,9.74183288 C24.7443393,15.924361 24.4565191,22.2018435 24.356303,28.5742804 C24.2560869,34.9467172 24.5439072,41.5342673 25.2197638,48.3369304 C26.5900762,54.1123101 25.3043704,57 21.3626465,57 C20.0068972,57 17.9129034,55.9942919 17.1076152,54.3424297 C14.4009444,48.7903222 15.4500606,35.8496218 15.4500606,28.5 C15.4500606,21.5641952 15.2813815,8.41791167 17.5561178,2.43120259 C18.4089958,0.186576439 19.7503266,0 21.3626465,0 Z" id="Rectangle" fill="#FFCCE7"></path>
                        <path d="M15.3711426,1.83824973 C16.4717505,1.0864852 17.3437112,1.05526912 17.9870247,1.74460149 C16.6125467,12.6528376 16.0391806,21.4499365 16.2669262,28.1358983 C16.2885186,28.7697887 16.243877,29.3642482 16.1412052,29.9193031 C16.1446277,30.0226815 16.1464838,30.1287404 16.1464838,30.2359976 C16.1464838,36.9051973 17.0143219,45.6491035 18.7499982,56.4677164 C18.1338475,57.1774279 17.2660094,57.1774279 16.1464838,56.4677164 C14.6559635,55.5228167 13.5027415,54.6236125 12.7397509,54.3537788 C10.1323507,53.4316644 8.3717331,53.8098323 7.46813615,53.8098323 C5.24460864,53.8098323 7.46813615,52.0146505 4.37973458,52.3377022 C1.65702977,43.5392551 2.23767693e-06,39.81897 2.23767693e-06,30.2359976 C2.23767693e-06,29.8626907 0.0245046763,29.5032876 0.0716005575,29.1578626 C0.057830036,29.0141849 0.0488471076,28.866625 0.0437396572,28.7166863 C-0.283504911,19.1096283 1.25435059,15.3203896 3.68953224,6.40189328 C6.80363673,6.61466734 4.50824318,4.89495369 6.74233329,4.81497356 C7.65022267,4.78247125 9.43211786,5.09826035 12.020415,4.08004038 C12.7778156,3.78208372 13.9058091,2.83913817 15.3711426,1.83824973 Z" id="Combined-Shape" fill="#F54291"></path>
                    </g>
                    <path d="M181.66629,45.3261164 C192.564577,53.7592601 199.772415,64.3637644 203.278605,77.1272884 C204.233291,80.6026153 204.822393,86.8355102 205.05478,95.8521535 L205.058908,96.0123366 L204.969161,96.1450813 C203.817768,97.8481085 202.341973,98.7231445 200.57787,98.7231445 C198.809825,98.7231445 197.138176,97.6591303 195.562743,95.5869453 L195.469086,95.4637575 L195.46139,95.3092013 C195.058907,87.2266217 194.449574,81.3983192 193.637679,77.8378324 C191.42038,68.1140717 185.176525,59.93974 174.878553,53.3044932 L174.588267,53.6469698 L174.224268,53.4289371 C160.419218,45.1598202 146.346945,41.0285383 132,41.0285383 C117.655051,41.0285383 103.81822,45.158615 90.4807646,53.4249919 L90.1214697,53.6476781 L89.603046,53.0589519 L89.5204073,53.1110578 C79.0171578,59.7854652 72.6588995,68.0330822 70.4170081,77.8646879 C69.6051138,81.4251746 68.9957808,87.2534772 68.5932975,95.3360568 L68.5856011,95.490613 L68.4919444,95.6138008 C66.9165111,97.6859857 65.2448623,98.75 63.4768173,98.75 C61.7127141,98.75 60.2369194,97.874964 59.085526,96.1719367 L58.9957792,96.039192 L58.9999076,95.879009 C59.2322942,86.8623657 59.8213962,80.6294708 60.7760823,77.1541439 C64.3095669,64.291262 71.6025164,53.6212416 82.6433896,45.1565709 L82.0205431,44.4488127 L82.4465346,44.1234955 C96.5853859,33.3260714 112.949441,27.9257813 131.521631,27.9257813 C150.093953,27.9257813 166.775789,33.5004209 181.551082,44.6445346 L181.974863,44.9641672 L181.66629,45.3261164 Z" id="Combined-Shape" stroke="#F76EAA" fill="#F76EAA"></path>
                </g>
            </g>
        </g>
    </g>
</svg>