<?xml version="1.0" encoding="UTF-8"?>
<svg width="1024px" height="1024px" viewBox="0 0 1024 1024" version="1.1" xmlns="http://www.w3.org/2000/svg" xmlns:xlink="http://www.w3.org/1999/xlink">
    <!-- Generator: Sketch 57.1 (83088) - https://sketch.com -->
    <title>WearingHardHat</title>
    <desc>Created with Sketch.</desc>
    <defs>
        <filter x="-123.5%" y="-13.5%" width="347.1%" height="126.9%" filterUnits="objectBoundingBox" id="filter-1">
            <feGaussianBlur stdDeviation="7" in="SourceGraphic"></feGaussianBlur>
        </filter>
    </defs>
    <g id="WearingHardHat" stroke="none" stroke-width="1" fill="none" fill-rule="evenodd">
        <g id="Firefly" transform="translate(-13.448080, -0.994672)">
            <rect id="Frame" x="13.4480797" y="0.994672378" width="1024" height="1024"></rect>
            <path d="M220.90025,364.82873 C288.340715,402.678148 333.821324,474.199127 333.821324,556.1959 C333.821324,637.368545 289.250349,708.274916 222.927052,746.411645 C155.480609,708.564145 110,637.043166 110,555.046393 C110,474.843046 153.51287,404.662253 218.52768,366.210821 Z" id="LeftBigWing" stroke="#C7CBD1" stroke-width="22.5" fill="#C7CBD1" transform="translate(221.910662, 555.621147) rotate(-59.000000) translate(-221.910662, -555.621147) "></path>
            <path d="M267.513597,580.930603 C310.757736,606.268493 339.739565,652.798065 339.739565,706.003178 C339.739565,760.675111 309.137699,808.29835 263.904774,833.12276 C220.658033,807.787127 191.675877,761.25733 191.675877,708.051917 C191.675877,653.454617 222.194251,605.886779 267.325508,581.034125 Z" id="LeftSmallWing" stroke="#E3E5E8" stroke-width="22.5" fill="#E3E5E8" transform="translate(265.707721, 707.027548) rotate(-109.000000) translate(-265.707721, -707.027548) "></path>
            <path d="M829.890024,367.859915 C899.662163,405.991735 946.715172,478.046073 946.715172,560.654299 C946.715172,642.432378 900.603102,713.86762 831.98658,752.288847 C762.208062,714.15947 715.154604,642.104838 715.154604,559.496217 C715.154604,478.694604 760.172052,407.990306 827.43493,369.25205 Z" id="RightBigWing" stroke="#C7CBD1" stroke-width="22.5" fill="#C7CBD1" transform="translate(830.934888, 560.075258) scale(-1, 1) rotate(-59.000000) translate(-830.934888, -560.075258) "></path>
            <path d="M787.428408,577.547089 C832.167782,603.073996 862.151697,649.950622 862.151697,703.552575 C862.151697,758.632201 830.491831,806.610587 783.695027,831.620219 C738.952211,806.095176 708.968296,759.21855 708.968296,705.616597 C708.968296,650.612035 740.541927,602.68937 787.233723,577.651332 Z" id="RightSmallWing" stroke="#E3E5E8" stroke-width="22.5" fill="#E3E5E8" transform="translate(785.559997, 704.584586) scale(-1, 1) rotate(-109.000000) translate(-785.559997, -704.584586) "></path>
            <path d="M634.863601,600.7894 C669.450416,628.281557 691.279913,668.592556 691.279913,713.515705 C691.279913,796.363122 616.242485,833.651649 524.657883,833.651649 C433.073281,833.651649 359.622729,796.363122 359.622729,713.515705 C359.622729,669.063585 380.996853,629.127402 414.955309,601.658402 C444.659212,614.897383 484.304911,622.038487 523.95061,622.038487 C564.323494,622.038487 604.696378,614.633014 634.568275,600.927937 Z" id="Body" stroke="#3E8C0B" stroke-width="22.5" fill="#3E8C0B"></path>
            <path d="M531.454166,746.6051 C592.40938,746.6051 653.364595,730.324007 702.108983,699.895507 C702.885228,706.056947 703.285603,712.327744 703.285603,718.683882 C703.285603,808.316995 622.815601,848.659675 524.600439,848.659675 C426.385278,848.659675 347.617039,808.316995 347.617039,718.683882 C347.617039,709.838365 348.392441,701.158129 349.884596,692.696696 C400.262163,727.750532 465.858164,746.6051 531.454166,746.6051 Z" id="BodyLightBottom" fill="#FBE66A"></path>
            <path d="M349.756142,691.981175 C399.902007,725.780218 464.877583,743.948371 529.85316,743.948371 C591.426942,743.948371 653.000723,727.632805 701.956163,697.164317 C702.832798,703.574374 703.285603,710.106553 703.285603,716.733354 C703.285603,733.161369 700.473117,747.900472 695.257994,761.007978 C646.213896,785.956743 586.975839,799.239575 527.737782,799.239575 C466.111386,799.239575 404.48499,784.864086 354.34348,757.925431 C349.959488,745.603548 347.617039,731.886973 347.617039,716.733354 C347.617039,708.313879 348.347966,700.047144 349.756142,691.981175 Z" id="BodyLightMid" fill="#F9DC28"></path>
            <path d="M362.095117,651.622991 C410.321189,676.856609 470.087174,690.340032 529.85316,690.340032 C586.782116,690.340032 643.711072,678.106315 690.667288,655.138148 C698.808004,671.134523 703.285603,688.592775 703.285603,706.871772 L703.27501,707.808201 C652.749533,733.029655 590.243657,746.504024 527.737782,746.504024 C463.331615,746.504024 398.925449,732.197911 347.626457,705.4729 C347.865024,686.357911 353.000506,668.162927 362.095117,651.622991 Z" id="BodyLightTop" fill="#DFC104"></path>
            <path d="M463.685528,211.082349 C456.892456,170.46942 440.608564,133.3522 414.833852,99.7306894 C389.059141,66.1091787 356.820373,51.4411985 318.11755,55.7267488" id="LeftAntenna" stroke="#17191C" stroke-width="22.5" stroke-linecap="round" transform="translate(390.901539, 133.041175) rotate(-7.000000) translate(-390.901539, -133.041175) "></path>
            <path d="M748.332778,211.26524 C741.399636,170.652312 724.779988,133.535094 698.473834,99.9135876 C672.16768,66.2920808 639.264194,51.6241055 599.763375,55.9096617" id="RightAntenna" stroke="#17191C" stroke-width="22.5" stroke-linecap="round" transform="translate(674.048076, 133.224075) scale(-1, 1) rotate(-7.000000) translate(-674.048076, -133.224075) "></path>
            <path d="M386.220186,871.553834 L333.360283,912.075504" id="LightLeft" stroke="#FBE66A" stroke-width="22.5" stroke-linecap="round"></path>
            <path d="M525.283816,912.259644 L525.283816,980.164039" id="LightMiddle" stroke="#FBE66A" stroke-width="22.5" stroke-linecap="round"></path>
            <path d="M678.356959,862.549811 L703.867857,922.58033" id="LightRight" stroke="#FBE66A" stroke-width="22.5" stroke-linecap="round" transform="translate(691.112408, 892.565070) rotate(-29.974508) translate(-691.112408, -892.565070) "></path>
            <path d="M525.451321,608.531264 C641.381264,608.531264 757.311207,533.46968 757.311207,405.324995 C757.311207,277.180311 653.504,173.298519 525.451321,173.298519 C397.398642,173.298519 293.591435,277.180311 293.591435,405.324995 C293.591435,533.46968 409.521378,608.531264 525.451321,608.531264 Z" id="Head" stroke="#4AA810" stroke-width="22.5" fill="#4AA810"></path>
            <ellipse id="LeftEye" fill="#FFFFFF" cx="413.648334" cy="386.412484" rx="96.0455192" ry="96.0513644"></ellipse>
            <path d="M414.517932,444.943784 C446.361643,444.943784 472.176072,418.098432 472.176072,384.983012 C472.176072,351.867593 446.274592,322.579572 414.517932,325.022241 C384.967642,327.2952 376.976388,338.481807 390.544167,358.582064 C370.777104,348.259936 359.548978,357.060252 356.859791,384.983012 C353.686409,417.933335 382.67422,444.943784 414.517932,444.943784 Z" id="LeftPupil" fill="#17191C"></path>
            <ellipse id="RightEye" fill="#FFFFFF" cx="637.254308" cy="386.412484" rx="96.0455192" ry="96.0513644"></ellipse>
            <path d="M637.494238,445.738769 C669.531001,445.738769 695.501928,418.807183 695.501928,385.585389 C695.501928,352.363595 669.443421,322.981494 637.494238,325.432009 C607.764802,327.712269 599.725101,338.934811 613.375134,359.099634 C593.488234,348.744349 582.192039,357.572934 579.486549,385.585389 C576.293928,418.641555 605.457476,445.738769 637.494238,445.738769 Z" id="RightPupil" fill="#17191C"></path>
            <path d="M479.679628,528.988728 C494.444864,539.275748 509.490361,544.419258 524.816119,544.419258 C540.141877,544.419258 556.03431,539.275748 572.493418,528.988728" id="Smile" stroke="#3E8C0B" stroke-width="22.5" stroke-linecap="round"></path>
        </g>
        <g id="HardHat" transform="translate(243.898438, 65.267569)">
            <g id="Group-3" transform="translate(30.101562, 119.000000)">
                <ellipse id="Oval" stroke="#17191C" stroke-width="8" cx="238" cy="230.5" rx="227" ry="208.5"></ellipse>
                <g id="Group-2" fill="#17191C">
                    <path d="M255.501776,0 C376.728278,0 475.001776,98.2734974 475.001776,219.5 C475.001776,340.726503 376.728278,439 255.501776,439 C252.318233,439 249.15052,438.932226 246,438.798042 C362.822047,433.822628 456.001776,337.54296 456.001776,219.5 C456.001776,101.45704 362.822047,5.17737192 246.003551,0.201957641 C249.15052,0.0677739202 252.318233,0 255.501776,0 Z" id="Combined-Shape"></path>
                    <path d="M9.5017755,0 C130.728278,0 229.001776,98.2734974 229.001776,219.5 C229.001776,340.726503 130.728278,439 9.5017755,439 C6.31823285,439 3.15051964,438.932226 5.32907052e-14,438.798042 C116.822047,433.822628 210.001776,337.54296 210.001776,219.5 C210.001776,101.45704 116.822047,5.17737192 0.00355100097,0.201957641 C3.15051964,0.0677739202 6.31823285,0 9.5017755,0 Z" id="Combined-Shape-Copy" transform="translate(114.500888, 219.500000) scale(-1, 1) translate(-114.500888, -219.500000) "></path>
                </g>
                <path d="M215.837804,426.925215 C225.098448,428.550797 232.879703,429.331366 239.181569,429.266922 C245.340914,429.203935 252.67033,428.425879 261.169816,426.932752 C265.728276,426.131948 270.072811,429.178137 270.873608,433.736597 C270.95771,434.21534 271,434.700493 271,435.186567 C271,441.19716 266.65263,446.325917 260.723219,447.310453 C252.413324,448.690278 245.232774,449.380191 239.181569,449.380191 C232.972314,449.380191 225.326833,448.653768 216.245126,447.200924 C210.342409,446.256637 206,441.164338 206,435.186567 C206,430.554205 209.755272,426.798933 214.387634,426.798933 C214.873769,426.798933 215.358984,426.841197 215.837804,426.925215 Z" id="Rectangle" fill="#DFC106"></path>
            </g>
            <g id="Group" transform="translate(0.000000, 0.000000)">
                <ellipse id="Oval" fill="#DFC106" cx="18.6015625" cy="235.732431" rx="15.5" ry="12"></ellipse>
                <path d="M265.601562,268.698071 C332.064539,268.698071 392.623451,293.492858 438.188503,282.116971 C489.74207,269.245975 522.101562,252.812639 522.101562,241.232431 C522.101562,219.417183 407.262601,201.732431 265.601562,201.732431 C123.940524,201.732431 9.1015625,219.417183 9.1015625,241.232431 C9.1015625,252.180259 38.0233378,267.465643 84.7426694,279.977868 C131.118856,292.398193 195.03212,268.698071 265.601562,268.698071 Z" id="Oval" fill="#F9BD28"></path>
                <path d="M512.010661,253.175188 C520.571075,249.628915 522.101563,244.359848 522.101563,237.732431 C522.101563,231.105014 515.161976,225.732292 506.601563,225.732292 C498.041149,225.732292 526.750916,225.429094 499.943379,253.175188 C473.135843,280.921282 503.450248,256.721461 512.010661,253.175188 Z" id="Oval-Copy-5" fill="#DFC106"></path>
                <path d="M266.601563,238.100074 C376.168722,238.100074 478.019094,270.690277 508.765625,241.511761 C516.066957,234.582783 508.765625,225.991025 508.765625,210.562786 C508.765625,130.164919 426.744141,23.1933681 266.601563,23.1933681 C106.458984,23.1933681 21.3457424,130.164919 21.3457424,210.562786 C21.3457424,224.622725 15.0856496,234.607243 21.3457424,241.511761 C50.8822567,274.088817 154.726852,238.100074 266.601563,238.100074 Z" id="Oval-Copy-6" fill="#F8B307"></path>
                <path d="M266.601563,233.732431 C376.168722,233.732431 478.019094,267.025122 508.765625,237.217657 C516.066957,230.139323 508.765625,221.362368 508.765625,205.601571 C508.765625,123.470712 426.744141,14.1933681 266.601563,14.1933681 C106.458984,14.1933681 21.3457424,123.470712 21.3457424,205.601571 C21.3457424,219.964575 15.0856496,230.16431 21.3457424,237.217657 C50.8822567,270.496918 154.726852,233.732431 266.601563,233.732431 Z" id="Oval" fill="#F9BD28"></path>
                <path d="M266.601563,233.732431 C265.28707,166.972405 262.748818,166.972405 266.601563,110.068368 C270.169963,57.3640239 265.601563,56.3691493 266.601563,14.1933681 C106.458984,14.1933681 21.3457424,123.470712 21.3457424,205.601571 C21.3457424,219.964575 15.0856496,230.16431 21.3457424,237.217657 C50.8822567,270.496918 154.726852,233.732431 266.601563,233.732431 Z" id="Oval-Copy-4" fill="#FACA51"></path>
                <polygon id="Path" fill="#7C6B03" points="343.261719 10.3769618 355.103516 26.0488368 378.907791 188.023446 348.195534 81.2558681"></polygon>
                <polygon id="Path-Copy" fill="#AE9605" transform="translate(178.924599, 96.555673) scale(-1, 1) translate(-178.924599, -96.555673) " points="161.101562 7.73243057 172.105137 23.1933681 196.747635 185.378915 166.035378 78.6113368"></polygon>
                <path d="M197.314453,6.28711807 C229.727513,1.73375862 254.173856,-0.346319504 270.653483,0.0468836948 C287.13311,0.440086894 311.555907,3.68618064 343.921875,9.78516494 L349.101562,80.7324306 L186.101562,80.7324306 L197.314453,6.28711807 Z" id="Rectangle" fill="#F9BD28"></path>
                <path d="M185.744061,80.0546962 C221.476102,77.8398524 248.867079,76.7324306 267.916992,76.7324306 C286.966905,76.7324306 314.028429,77.8398524 349.101563,80.0546962 L392.097656,235.727548 C335.87905,234.16931 294.380352,233.231484 267.601562,232.914071 C240.822773,232.596658 199.380734,236.097867 143.275446,243.417697 L185.744061,80.0546962 Z" id="Rectangle" fill="#FBD16A"></path>
                <rect id="Rectangle" fill="#F9BD28" filter="url(#filter-1)" x="260.101562" y="76.7324306" width="17" height="156"></rect>
                <path d="M267.916992,76.7324306 C286.906035,72.6337429 301.180449,70.7800036 310.740234,71.1712128 C320.30002,71.5624219 333.087129,74.5235831 349.101562,80.0546962 L394.666016,235.732431 L267.601562,232.914071 L267.916992,76.7324306 Z" id="Rectangle-Copy" fill="#F9BD28"></path>
                <path d="M18.5634789,223.628915 C6.18782631,224.460946 0,230.160816 0,240.728524 C0,256.580087 60.2562976,285.102964 99.2747898,282.562509 C60.2562976,276.214852 21.2011719,254.273446 9.1015625,243.727548 C1.03515625,236.696949 4.1891284,229.997405 18.5634789,223.628915 Z" id="Path-2" fill="#F9DC28"></path>
                <path d="M444.665041,223.732431 C432.289389,224.564462 426.101562,230.264332 426.101562,240.83204 C426.101562,256.683602 486.35786,285.20648 525.376352,282.666024 C486.35786,276.318368 447.302734,254.376962 435.203125,243.831063 C427.136719,236.800464 430.290691,230.10092 444.665041,223.732431 Z" id="Path-2-Copy" fill="#F9DC28" transform="translate(475.738957, 253.278704) scale(-1, 1) translate(-475.738957, -253.278704) "></path>
            </g>
        </g>
    </g>
</svg>